<?xml version="1.0" encoding="UTF-8"?>
<svg width="12px" height="12px" viewBox="0 0 12 12" version="1.1" xmlns="http://www.w3.org/2000/svg" xmlns:xlink="http://www.w3.org/1999/xlink">
    <!-- Generator: Sketch 59 (86127) - https://sketch.com -->
    <title>smiley</title>
    <desc>Created with Sketch.</desc>
    <g id="Page-1" stroke="none" stroke-width="1" fill="none" fill-rule="evenodd">
        <g id="Portfolio---Final" transform="translate(-282.000000, -6642.000000)" fill="#fff" fill-rule="nonzero">
            <g id="smiley" transform="translate(282.000000, 6642.000000)">
                <path d="M6,0 C7.59135,0 9.117165,0.63225 10.24275,1.75725 C11.36778,2.88285 12,4.40865 12,6 C12,7.59135 11.36775,9.117165 10.24275,10.24275 C9.11715,11.36778 7.59135,12 6,12 C4.40865,12 2.882835,11.36775 1.75725,10.24275 C0.63222,9.11715 0,7.59135 0,6 C0,4.40865 0.63225,2.882835 1.75725,1.75725 C2.88285,0.63222 4.40865,0 6,0 Z M10.05885,5.699994 C9.89361,5.699994 9.75885,5.83417948 9.75885,6 C9.75885,7.342965 9.04284,8.58405 7.8798,9.25545 C6.71676,9.92685 5.28345,9.92694 4.1205,9.25545 C2.95755,8.58396 2.24145,7.34295 2.24145,6 C2.24145,5.834175 2.106684,5.699994 1.94145,5.699994 C1.775625,5.699994 1.64145,5.83417948 1.64145,6 C1.64145,7.55745 2.472315,8.99655 3.8205,9.7752 C5.16933,10.55391 6.831,10.55391 8.1798,9.7752 C9.528045,8.99649 10.35885,7.55745 10.35885,6 C10.35885,5.92031248 10.327209,5.844135 10.270959,5.787885 C10.214709,5.731635 10.1385375,5.699994 10.058844,5.699994 L10.05885,5.699994 Z M5.02965,4.45665 C5.02965,3.798645 4.673985,3.26544 4.2357,3.26544 C3.798,3.26544 3.442335,3.798645 3.442335,4.45665 C3.442335,5.11407 3.798,5.647275 4.2357,5.647275 C4.673985,5.647275 5.02965,5.11407 5.02965,4.45665 Z M8.55765,4.45665 C8.55765,3.798645 8.201985,3.26544 7.764285,3.26544 C7.326,3.26544 6.970335,3.798645 6.970335,4.45665 C6.970335,5.11407 7.326,5.647275 7.764285,5.647275 C8.201985,5.647275 8.55765,5.11407 8.55765,4.45665 Z" id="Combined-Shape"></path>
            </g>
        </g>
    </g>
</svg>