<svg 
  class="c-logo__media" 
  enable-background="new 0 0 400 400" 
  height="120px" 
  id="Layer_1" 
  version="1.1" 
  viewBox="0 0 400 400" 
  width="120px" 
  x="0px" 
  xml:space="preserve" 
  xmlns="http://www.w3.org/2000/svg" 
  xmlns:xlink="http://www.w3.org/1999/xlink" 
  y="0px"
> 
<circle cx="200.063" cy="199.798" fill="#278bdd" r="188.312"></circle> 
  <g> 
    <path d="M388.328,196.097c-3.42-2.688-7.359-4.772-11.857-6.209c-8.877-2.741-17.666-7.292-26.374-13.657
    c-8.705-6.362-17.421-14.034-26.149-23.011c-8.729-8.978-17.298-18.793-25.706-29.455c-8.406-10.646-16.411-21.583-24.021-32.788
    c-9.782-14.402-18.46-28.673-26.02-42.831c-7.465-13.954-14.273-25.484-20.458-34.631c-9.034-1.332-18.274-2.03-27.68-2.03
    c-8.015,0-15.911,0.505-23.663,1.476c-1.341,3.121-2.052,6.563-2.048,10.371c0.016,9.059,2.446,19.095,7.301,30.114
    c4.86,11.031,11.192,22.512,19.007,34.441c7.811,11.945,15.663,23.709,23.541,35.308c13.856,20.401,28.78,39.793,44.763,58.161
    c-0.261,1.354-0.782,2.723-1.574,4.136c-0.793,1.416-1.319,2.8-1.575,4.139c-0.064,7.649-0.535,15.571-1.405,23.752
    c-0.872,8.195-2.544,16.061-5.026,23.581c-2.484,7.54-5.911,14.537-10.281,21.015c-4.371,6.476-9.556,11.749-15.558,15.825
    c-16.406,11.145-34.292,12.769-53.675,4.89c-19.381-7.882-36.675-23.019-51.894-45.426c-13.309-19.596-25.58-38.309-36.799-56.118
    c-11.217-17.807-23.208-36.107-35.981-54.915c-7.165-6.232-14.273-9.598-21.312-10.078c-0.174-0.012-0.34-0.007-0.514-0.017
    c-9.11,17.289-15.608,36.165-18.972,56.109c6.16,9.423,12.732,19.884,19.737,31.421c9.788,16.149,20.266,32.425,31.402,48.821
    c9.24,13.604,18.736,26.295,28.494,38.08c9.758,11.785,19.766,21.801,30.034,30.022c9.719,7.426,20.876,13.306,33.449,17.615
    c12.58,4.322,25.402,6.86,38.492,7.616c13.081,0.763,25.917-0.351,38.499-3.349c12.58-2.983,24.273-8.156,35.075-15.492
    c14.795-10.048,26.546-23.729,35.258-41.044c8.699-17.308,14.446-35.09,17.244-53.362c11.465,7.42,23.185,13.054,35.152,16.897
    c9.533,3.076,18.062,3.015,25.589-0.159c3.62-14.578,5.553-29.822,5.553-45.521C388.375,198.561,388.352,197.328,388.328,196.097z" fill="#fff"></path> 
  </g> 
</svg>