<svg id="Layer_1" data-name="Layer 1" xmlns="http://www.w3.org/2000/svg" viewBox="0 0 114.86 102.62"><defs><style>.cls-1{fill:#45ada8;}</style></defs><title>uidoyen</title><path class="cls-1" d="M116.5,57.31a11.42,11.42,0,0,0-3.64-1.93,27.23,27.23,0,0,1-8.1-4.24,63.61,63.61,0,0,1-8-7.14,115.17,115.17,0,0,1-7.9-9.15c-2.58-3.3-5-6.7-7.38-10.17a146.78,146.78,0,0,1-8-13.3A123.63,123.63,0,0,0,67.18.63,57.67,57.67,0,0,0,51.41.46a8.18,8.18,0,0,0-.63,3.22A23.87,23.87,0,0,0,53,13a76,76,0,0,0,5.84,10.69q3.6,5.55,7.23,11a191.11,191.11,0,0,0,13.75,18A4.44,4.44,0,0,1,79.36,54a4.15,4.15,0,0,0-.49,1.28c0,2.38-.16,4.83-.43,7.37A35.63,35.63,0,0,1,76.9,70a26.83,26.83,0,0,1-3.16,6.53A18.06,18.06,0,0,1,69,81.43Q61.4,86.62,52.48,83T36.54,68.85q-6.13-9.13-11.3-17.42t-11-17a11.22,11.22,0,0,0-6.55-3.13H7.48A58.49,58.49,0,0,0,1.66,48.66q2.84,4.4,6.06,9.76,4.51,7.52,9.64,15.15,4.26,6.34,8.75,11.82a64.17,64.17,0,0,0,9.23,9.32,35.76,35.76,0,0,0,10.27,5.47,43.45,43.45,0,0,0,11.82,2.36,40.1,40.1,0,0,0,11.83-1A32.39,32.39,0,0,0,80,96.7,33,33,0,0,0,90.86,84a56,56,0,0,0,5.29-16.57A45.56,45.56,0,0,0,107,72.64a11,11,0,0,0,7.86,0,59.29,59.29,0,0,0,1.7-14.13C116.51,58.07,116.51,57.69,116.5,57.31Z" transform="translate(-1.66)"/></svg>